<svg xmlns="http://www.w3.org/2000/svg" width="41" height="41" viewBox="0 0 41 41"><defs><style>.a,.e{fill:#fff;}.a{stroke:#f2f2f2;stroke-miterlimit:10;}.b{fill:#e6e6e6;}.c{fill:#ff6e6e;}.d{fill:#ff5252;}</style></defs><g transform="translate(0.5 0.5)"><circle class="a" cx="20" cy="20" r="20"/><g transform="translate(-390.087 -130)"><path class="b" d="M420.571,163.953c0,.9-1.108,1.628-3.293,2.151a31.389,31.389,0,0,1-6.589.712c-.187,0-.388.005-.6.005a32.359,32.359,0,0,1-7.191-.716c-2.185-.524-3.293-1.248-3.293-2.152,0-.844.969-1.533,2.88-2.047a29.052,29.052,0,0,1,6.349-.8h2.509a29.088,29.088,0,0,1,6.351.8c1.91.514,2.879,1.2,2.879,2.047Z"/><path class="c" d="M421.8,146.533a11.714,11.714,0,0,1-7.736,11.02l-3.566,6.478a.467.467,0,0,1-.82,0l-.527-.956-3.039-5.522a11.714,11.714,0,0,1,3.039-22.695q.464-.038.937-.037A11.725,11.725,0,0,1,421.8,146.533Z"/><path class="d" d="M421.8,146.533a11.714,11.714,0,0,1-7.736,11.02l-3.566,6.478a.467.467,0,0,1-.82,0l-.527-.956,3.04-5.522a11.714,11.714,0,0,0-3.04-22.695q.464-.038.937-.037A11.725,11.725,0,0,1,421.8,146.533Z"/><path class="e" d="M417.841,146.627a7.762,7.762,0,1,1-7.757-7.757A7.765,7.765,0,0,1,417.841,146.627Z"/><path class="b" d="M417.841,146.627a7.762,7.762,0,0,1-8.693,7.7,7.758,7.758,0,0,0,0-15.4,7.762,7.762,0,0,1,8.693,7.7Z"/><path class="c" d="M413.624,145.053h-1.966V143.1a.4.4,0,0,0-.4-.4H408.9a.4.4,0,0,0-.4.4v1.95H406.55a.4.4,0,0,0-.4.4V147.8a.4.4,0,0,0,.4.4H408.5v1.951a.4.4,0,0,0,.4.4h2.356a.4.4,0,0,0,.4-.4V148.2h1.966a.4.4,0,0,0,.4-.4v-2.346A.4.4,0,0,0,413.624,145.053Z"/></g></g></svg>