<svg xmlns="http://www.w3.org/2000/svg" width="41" height="41" viewBox="0 0 41 41"><defs><style>.a{fill:#fff;stroke:#f2f2f2;stroke-miterlimit:10;}.b{fill:#ff6b5c;}.c{fill:#ff8f7f;}.d{fill:#ff5252;}.e{fill:#f33;}</style></defs><g transform="translate(0.5 0.5)"><circle class="a" cx="20" cy="20" r="20"/><g transform="translate(-389.148 -690)"><path class="b" d="M403.882,721.092c-.814-5.123,3.722-9.4,3.722-9.4s-.368,5.957,1.943,7.014V697.968c-3.22,1.045-8.731,3.649-10.351,9.507a12.688,12.688,0,0,0,.668,8.358,2.233,2.233,0,0,1-1.615-.334,7.729,7.729,0,0,1-1.76-1.8s.368,11.839,12.816,12.319A6.013,6.013,0,0,1,403.882,721.092Z"/><path class="c" d="M421.75,710.851a12.275,12.275,0,0,1-1.555,2.532,5.619,5.619,0,0,1-3.111,1.688s3.423-1.688,3.423-5.064-3.111-8.439-3.111-8.439-.023,8.578-4.666,7.6c-5.387-1.14-.789-11.815-.789-11.815a18.1,18.1,0,0,0-2.394.62v20.741a1.719,1.719,0,0,0,.575.159c2.95.26,2.976-5.027,2.976-5.027a7.846,7.846,0,0,1,2.212,5.53c.014,3.515-2.172,6.608-5.408,6.665.062,0,.12.006.182.006C423.306,726.042,421.75,710.851,421.75,710.851Z"/><path class="d" d="M409.547,726.03c.088,0,.177.012.265.012.031,0,.06-.005.09-.006-.121,0-.236-.007-.355-.01Z"/><path class="d" d="M409.3,726.019c.081.007.161.007.242.011v0Z"/><path class="e" d="M409.547,718.709c-2.311-1.057-1.943-7.014-1.943-7.014s-4.536,4.274-3.722,9.4a6.013,6.013,0,0,0,5.423,4.927l.242.007Z"/><path class="d" d="M415.31,719.371a7.846,7.846,0,0,0-2.212-5.53s-.026,5.287-2.976,5.027a1.719,1.719,0,0,1-.575-.159v7.317c.119,0,.234.009.355.01C413.138,725.979,415.324,722.886,415.31,719.371Z"/></g></g></svg>