<svg xmlns="http://www.w3.org/2000/svg" width="41" height="41" viewBox="0 0 41 41"><defs><style>.a{fill:#fff;stroke:#f2f2f2;stroke-miterlimit:10;}.b{fill:#384949;}.c{fill:#293939;}.d{fill:#3e5959;}.e{fill:#73bcff;}.f{fill:#3aaaff;}.g{fill:#ede9e8;}.h{fill:#dfd7d5;}</style></defs><g transform="translate(0.5 0.5)"><circle class="a" cx="20" cy="20" r="20"/><g transform="translate(-389.148 -830)"><path class="b" d="M422.148,859.953v.762A2.282,2.282,0,0,1,419.863,863h-21.43a2.282,2.282,0,0,1-2.285-2.285v-.762l3.336-1.523h20.364Z"/><path class="c" d="M422.148,859.953v.762A2.282,2.282,0,0,1,419.863,863H409.148v-4.57h10.7Z"/><path class="d" d="M422.148,844.008v15.945h-26V844.008l1.569.426a6.732,6.732,0,0,0,6.708,6.277h9.446a6.739,6.739,0,0,0,6.708-6.246Z"/><path class="d" d="M416,840.809v1.523a.761.761,0,1,1-1.523,0v-1.523a2.283,2.283,0,0,0-2.285-2.286H406.1a2.282,2.282,0,0,0-2.285,2.286v1.523a.762.762,0,1,1-1.524,0v-1.523A3.81,3.81,0,0,1,406.1,837H412.2A3.81,3.81,0,0,1,416,840.809Z"/><path class="b" d="M412.2,838.523h-3.047V837H412.2A3.81,3.81,0,0,1,416,840.809v1.523a.761.761,0,1,1-1.523,0v-1.523A2.283,2.283,0,0,0,412.2,838.523Z"/><path class="b" d="M422.148,844.008v15.945h-13v-9.242h4.722a6.739,6.739,0,0,0,6.709-6.246Z"/><path class="e" d="M419.863,841.57h-21.43a2.282,2.282,0,0,0-2.285,2.286v.152a8.275,8.275,0,0,0,8.277,8.227h9.446a8.275,8.275,0,0,0,8.277-8.227v-.152A2.283,2.283,0,0,0,419.863,841.57Z"/><path class="f" d="M422.148,843.856v.152a8.275,8.275,0,0,1-8.278,8.227h-4.722V841.57h10.715A2.283,2.283,0,0,1,422.148,843.856Z"/><path class="g" d="M410.671,849.188h-3.047a.754.754,0,0,0-.761.761V853a.754.754,0,0,0,.761.762h3.047a.754.754,0,0,0,.762-.762v-3.047A.754.754,0,0,0,410.671,849.188Z"/><path class="h" d="M410.671,853.758h-1.523v-4.57h1.523a.754.754,0,0,1,.762.761V853A.754.754,0,0,1,410.671,853.758Z"/></g></g></svg>