<svg xmlns="http://www.w3.org/2000/svg" width="41" height="41" viewBox="0 0 41 41"><defs><style>.a{fill:#fff;stroke:#f2f2f2;stroke-miterlimit:10;}.b{fill:#cee1f2;}.c{fill:#009245;}.d{fill:none;stroke:#009245;stroke-linecap:round;stroke-linejoin:round;stroke-width:2px;}</style></defs><g transform="translate(0.5 0.5)"><circle class="a" cx="20" cy="20" r="20"/><g transform="translate(-389.148 -950)"><path class="b" d="M405.274,981.984h-3.083a5.077,5.077,0,0,1-5.078-5.078V963.094a5.077,5.077,0,0,1,5.078-5.078h3.083a5.069,5.069,0,0,0-5.064,5.076v13.816A5.069,5.069,0,0,0,405.274,981.984Zm7.327-5.839a5.841,5.841,0,0,1,4.037-5.556,5.84,5.84,0,1,0,0,11.111,5.84,5.84,0,0,1-4.037-5.555Z"/><path class="c" d="M407.167,983h-4.925a6.1,6.1,0,0,1-6.094-6.094V963.094A6.1,6.1,0,0,1,402.242,957h9.343a6.1,6.1,0,0,1,6.094,6.094v3.3a1.015,1.015,0,0,1-2.031,0v-3.3a4.068,4.068,0,0,0-4.063-4.063h-9.343a4.068,4.068,0,0,0-4.063,4.063v13.812a4.068,4.068,0,0,0,4.063,4.063h4.925a1.016,1.016,0,1,1,0,2.031Zm5.231-21.023a1.016,1.016,0,1,0-2.031,0,1.525,1.525,0,0,1-1.524,1.523h-3.859a1.525,1.525,0,0,1-1.524-1.523,1.016,1.016,0,1,0-2.031,0,3.558,3.558,0,0,0,3.555,3.554h3.859A3.558,3.558,0,0,0,412.4,961.977Zm9.75,14.168A6.855,6.855,0,1,0,415.292,983,6.864,6.864,0,0,0,422.148,976.145Zm-2.031,0a4.825,4.825,0,1,1-4.825-4.825A4.83,4.83,0,0,1,420.117,976.145Z"/><path class="d" d="M412.824,976.007l1.932,2.115,3.005-3.955"/></g></g></svg>